<svg width="32" height="32" viewBox="0 0 32 32" fill="none" xmlns="http://www.w3.org/2000/svg">
<rect width="32" height="32" rx="8" fill="#6E9625"/>
<path d="M17.9994 16L11.7507 22.2487C11.6194 22.38 11.4635 22.4842 11.2919 22.5554C11.1203 22.6265 10.9364 22.6631 10.7506 22.6631C10.3755 22.6632 10.0157 22.5142 9.75039 22.249C9.48508 21.9838 9.336 21.624 9.33594 21.2489C9.33588 20.8738 9.48484 20.514 9.75005 20.2487L15.9994 14" stroke="white" stroke-width="1.33333" stroke-linecap="round" stroke-linejoin="round"/>
<path d="M20 17.9997L22.6667 15.333" stroke="white" stroke-width="1.33333" stroke-linecap="round" stroke-linejoin="round"/>
<path d="M22.3333 15.6667L21.0573 14.3907C20.8073 14.1407 20.6667 13.8016 20.6667 13.448V13.2187C20.6666 12.8651 20.5261 12.526 20.276 12.276L19.1713 11.1713C18.4214 10.4215 17.4045 10.0002 16.344 10H14L14.8287 10.8287C15.5786 11.5787 16 12.596 16 13.6567V14.6667L17.3333 16H18.1147C18.4683 16.0001 18.8073 16.1406 19.0573 16.3907L20.3333 17.6667" stroke="white" stroke-width="1.33333" stroke-linecap="round" stroke-linejoin="round"/>
</svg>
