<svg width="148" height="32" viewBox="0 0 148 32" fill="none" xmlns="http://www.w3.org/2000/svg">
<rect width="32" height="32" rx="8" fill="#6E9625"/>
<path d="M17.9994 16L11.7507 22.2487C11.6194 22.38 11.4635 22.4842 11.2919 22.5554C11.1203 22.6265 10.9364 22.6631 10.7506 22.6631C10.3755 22.6632 10.0157 22.5142 9.75039 22.249C9.48508 21.9838 9.336 21.624 9.33594 21.2489C9.33588 20.8738 9.48484 20.514 9.75005 20.2487L15.9994 14" stroke="white" stroke-width="1.33333" stroke-linecap="round" stroke-linejoin="round"/>
<path d="M20 17.9997L22.6667 15.333" stroke="white" stroke-width="1.33333" stroke-linecap="round" stroke-linejoin="round"/>
<path d="M22.3333 15.6667L21.0573 14.3907C20.8073 14.1407 20.6667 13.8016 20.6667 13.448V13.2187C20.6666 12.8651 20.5261 12.526 20.276 12.276L19.1713 11.1713C18.4214 10.4215 17.4045 10.0002 16.344 10H14L14.8287 10.8287C15.5786 11.5787 16 12.596 16 13.6567V14.6667L17.3333 16H18.1147C18.4683 16.0001 18.8073 16.1406 19.0573 16.3907L20.3333 17.6667" stroke="white" stroke-width="1.33333" stroke-linecap="round" stroke-linejoin="round"/>
<path d="M44.22 23V9.8H47.1V23H44.22ZM40.36 12.22V9.8H50.96V12.22H40.36ZM55.3356 23.28C54.109 23.28 53.189 22.8667 52.5756 22.04C51.9623 21.2 51.6556 19.9333 51.6556 18.24V12.5H54.5356V17.9C54.5356 18.9133 54.6823 19.6667 54.9756 20.16C55.2823 20.64 55.749 20.88 56.3756 20.88C56.749 20.88 57.069 20.7933 57.3356 20.62C57.6156 20.4333 57.8556 20.1733 58.0556 19.84C58.2556 19.4933 58.409 19.0933 58.5156 18.64C58.6223 18.1867 58.6823 17.6867 58.6956 17.14V12.5H61.5756V18.68V23H59.2356V19.66H58.8756C58.689 20.5 58.4423 21.1867 58.1356 21.72C57.8423 22.2533 57.4623 22.6467 56.9956 22.9C56.5423 23.1533 55.989 23.28 55.3356 23.28ZM67.7994 26.62C66.6527 26.62 65.706 26.5267 64.9594 26.34C64.226 26.1667 63.686 25.9067 63.3394 25.56C63.006 25.2133 62.8394 24.7867 62.8394 24.28C62.8394 23.6667 63.0794 23.1667 63.5594 22.78C64.0394 22.3933 64.7594 22.16 65.7194 22.08V21.7C64.986 21.7 64.426 21.62 64.0394 21.46C63.666 21.3 63.4794 21.0267 63.4794 20.64C63.4794 20.2667 63.666 19.9333 64.0394 19.64C64.4127 19.3467 65.0394 19.12 65.9194 18.96V18.58C65.106 18.5133 64.466 18.24 63.9994 17.76C63.5327 17.28 63.2994 16.66 63.2994 15.9C63.2994 15.2333 63.486 14.64 63.8594 14.12C64.2327 13.5867 64.786 13.1667 65.5194 12.86C66.2527 12.54 67.1527 12.38 68.2194 12.38H73.5394V14.6L70.2194 14.14V14.56C71.086 14.6933 71.706 14.92 72.0794 15.24C72.466 15.5467 72.6594 15.9667 72.6594 16.5C72.6594 17.0467 72.4794 17.5267 72.1194 17.94C71.7727 18.3533 71.266 18.68 70.5994 18.92C69.946 19.1467 69.1594 19.26 68.2394 19.26C68.0527 19.26 67.8594 19.2533 67.6594 19.24C67.4594 19.2133 67.1327 19.1733 66.6794 19.12C66.426 19.32 66.226 19.4867 66.0794 19.62C65.9327 19.7533 65.8594 19.88 65.8594 20C65.8594 20.0933 65.906 20.1733 65.9994 20.24C66.106 20.2933 66.2394 20.3333 66.3994 20.36C66.5727 20.3867 66.746 20.4 66.9194 20.4H69.9194C70.186 20.4 70.5327 20.42 70.9594 20.46C71.386 20.5 71.8127 20.6067 72.2394 20.78C72.666 20.9533 73.026 21.2333 73.3194 21.62C73.6127 21.9933 73.7594 22.5267 73.7594 23.22C73.7594 23.9933 73.5394 24.6333 73.0994 25.14C72.6727 25.6467 72.0194 26.02 71.1394 26.26C70.2594 26.5 69.146 26.62 67.7994 26.62ZM68.0994 24.3C68.9127 24.3 69.546 24.2533 69.9994 24.16C70.466 24.08 70.7927 23.9467 70.9794 23.76C71.166 23.5733 71.2594 23.34 71.2594 23.06C71.2594 22.7933 71.1994 22.5867 71.0794 22.44C70.9727 22.2933 70.826 22.1933 70.6394 22.14C70.466 22.0733 70.286 22.0333 70.0994 22.02C69.926 22.0067 69.7727 22 69.6394 22H67.1194C66.5594 22.0533 66.1594 22.2 65.9194 22.44C65.6794 22.68 65.5594 22.96 65.5594 23.28C65.5594 23.56 65.6527 23.7733 65.8394 23.92C66.026 24.0667 66.306 24.1667 66.6794 24.22C67.0527 24.2733 67.526 24.3 68.0994 24.3ZM68.0794 17.76C68.706 17.76 69.1794 17.6 69.4994 17.28C69.8194 16.96 69.9794 16.5533 69.9794 16.06C69.9794 15.5267 69.8127 15.0867 69.4794 14.74C69.1594 14.3933 68.6927 14.22 68.0794 14.22C67.466 14.22 66.986 14.3933 66.6394 14.74C66.306 15.0733 66.1394 15.5067 66.1394 16.04C66.1394 16.3733 66.2127 16.6733 66.3594 16.94C66.5194 17.1933 66.7394 17.3933 67.0194 17.54C67.3127 17.6867 67.666 17.76 68.0794 17.76ZM77.4944 23.28C76.921 23.28 76.401 23.1667 75.9344 22.94C75.481 22.7133 75.121 22.38 74.8544 21.94C74.601 21.5 74.4744 20.9533 74.4744 20.3C74.4744 19.7133 74.5877 19.2267 74.8144 18.84C75.041 18.4533 75.3677 18.14 75.7944 17.9C76.221 17.66 76.741 17.46 77.3544 17.3C77.9677 17.14 78.6677 17 79.4544 16.88C79.8944 16.8133 80.2544 16.7467 80.5344 16.68C80.8144 16.6133 81.021 16.5133 81.1544 16.38C81.301 16.2467 81.3744 16.0533 81.3744 15.8C81.3744 15.4133 81.2344 15.0867 80.9544 14.82C80.6877 14.5533 80.2677 14.42 79.6944 14.42C79.321 14.42 78.9677 14.4867 78.6344 14.62C78.301 14.7533 78.021 14.96 77.7944 15.24C77.5677 15.5067 77.4077 15.8467 77.3144 16.26L74.7544 15.54C74.901 14.9667 75.121 14.4733 75.4144 14.06C75.721 13.6467 76.0877 13.3067 76.5144 13.04C76.941 12.76 77.4277 12.5533 77.9744 12.42C78.521 12.2867 79.1144 12.22 79.7544 12.22C80.781 12.22 81.6144 12.3867 82.2544 12.72C82.9077 13.0533 83.3944 13.5667 83.7144 14.26C84.0344 14.94 84.1944 15.8133 84.1944 16.88V18.68C84.1944 19.1467 84.201 19.6267 84.2144 20.12C84.241 20.6 84.2677 21.08 84.2944 21.56C84.321 22.04 84.361 22.52 84.4144 23H81.8544C81.8144 22.6533 81.7744 22.26 81.7344 21.82C81.6944 21.38 81.661 20.9333 81.6344 20.48H81.2944C81.1077 21 80.841 21.4733 80.4944 21.9C80.1477 22.3267 79.721 22.6667 79.2144 22.92C78.721 23.16 78.1477 23.28 77.4944 23.28ZM78.7144 21.2C78.9677 21.2 79.221 21.1533 79.4744 21.06C79.741 20.9667 79.9944 20.8333 80.2344 20.66C80.4877 20.4867 80.7144 20.2733 80.9144 20.02C81.1277 19.7533 81.2944 19.4467 81.4144 19.1L81.3944 17.52L81.8344 17.6C81.6077 17.7733 81.3344 17.9133 81.0144 18.02C80.7077 18.1133 80.381 18.1867 80.0344 18.24C79.701 18.2933 79.3677 18.3533 79.0344 18.42C78.701 18.4867 78.401 18.5733 78.1344 18.68C77.8677 18.7867 77.6544 18.9333 77.4944 19.12C77.3477 19.2933 77.2744 19.54 77.2744 19.86C77.2744 20.2733 77.4077 20.6 77.6744 20.84C77.941 21.08 78.2877 21.2 78.7144 21.2ZM87.8841 23V9.8H90.7641V23H87.8841ZM84.0241 12.22V9.8H94.6241V12.22H84.0241ZM95.3425 23V17.9V12.5H97.7425V16.14H98.1225C98.2158 15.2333 98.3892 14.4933 98.6425 13.92C98.9092 13.3467 99.2692 12.9267 99.7225 12.66C100.189 12.3933 100.763 12.26 101.443 12.26C101.563 12.26 101.696 12.2667 101.843 12.28C102.003 12.2933 102.176 12.32 102.363 12.36L102.243 15.42C102.029 15.3267 101.803 15.26 101.563 15.22C101.323 15.18 101.109 15.16 100.923 15.16C100.403 15.16 99.9558 15.28 99.5825 15.52C99.2092 15.76 98.9092 16.1067 98.6825 16.56C98.4692 17.0133 98.3225 17.5667 98.2425 18.22V23H95.3425ZM105.76 23.28C105.187 23.28 104.667 23.1667 104.2 22.94C103.747 22.7133 103.387 22.38 103.12 21.94C102.867 21.5 102.74 20.9533 102.74 20.3C102.74 19.7133 102.853 19.2267 103.08 18.84C103.307 18.4533 103.633 18.14 104.06 17.9C104.487 17.66 105.007 17.46 105.62 17.3C106.233 17.14 106.933 17 107.72 16.88C108.16 16.8133 108.52 16.7467 108.8 16.68C109.08 16.6133 109.287 16.5133 109.42 16.38C109.567 16.2467 109.64 16.0533 109.64 15.8C109.64 15.4133 109.5 15.0867 109.22 14.82C108.953 14.5533 108.533 14.42 107.96 14.42C107.587 14.42 107.233 14.4867 106.9 14.62C106.567 14.7533 106.287 14.96 106.06 15.24C105.833 15.5067 105.673 15.8467 105.58 16.26L103.02 15.54C103.167 14.9667 103.387 14.4733 103.68 14.06C103.987 13.6467 104.353 13.3067 104.78 13.04C105.207 12.76 105.693 12.5533 106.24 12.42C106.787 12.2867 107.38 12.22 108.02 12.22C109.047 12.22 109.88 12.3867 110.52 12.72C111.173 13.0533 111.66 13.5667 111.98 14.26C112.3 14.94 112.46 15.8133 112.46 16.88V18.68C112.46 19.1467 112.467 19.6267 112.48 20.12C112.507 20.6 112.533 21.08 112.56 21.56C112.587 22.04 112.627 22.52 112.68 23H110.12C110.08 22.6533 110.04 22.26 110 21.82C109.96 21.38 109.927 20.9333 109.9 20.48H109.56C109.373 21 109.107 21.4733 108.76 21.9C108.413 22.3267 107.987 22.6667 107.48 22.92C106.987 23.16 106.413 23.28 105.76 23.28ZM106.98 21.2C107.233 21.2 107.487 21.1533 107.74 21.06C108.007 20.9667 108.26 20.8333 108.5 20.66C108.753 20.4867 108.98 20.2733 109.18 20.02C109.393 19.7533 109.56 19.4467 109.68 19.1L109.66 17.52L110.1 17.6C109.873 17.7733 109.6 17.9133 109.28 18.02C108.973 18.1133 108.647 18.1867 108.3 18.24C107.967 18.2933 107.633 18.3533 107.3 18.42C106.967 18.4867 106.667 18.5733 106.4 18.68C106.133 18.7867 105.92 18.9333 105.76 19.12C105.613 19.2933 105.54 19.54 105.54 19.86C105.54 20.2733 105.673 20.6 105.94 20.84C106.207 21.08 106.553 21.2 106.98 21.2ZM118.28 23.28C117.4 23.28 116.633 23.06 115.98 22.62C115.326 22.1667 114.82 21.5267 114.46 20.7C114.1 19.86 113.92 18.8667 113.92 17.72C113.92 16.6533 114.08 15.7067 114.4 14.88C114.72 14.0533 115.193 13.4133 115.82 12.96C116.446 12.4933 117.22 12.26 118.14 12.26C118.82 12.26 119.393 12.3867 119.86 12.64C120.326 12.8933 120.706 13.2667 121 13.76C121.306 14.2533 121.54 14.8467 121.7 15.54H122.14C122.06 15.1133 121.98 14.6933 121.9 14.28C121.833 13.8667 121.78 13.4733 121.74 13.1C121.7 12.7267 121.68 12.3933 121.68 12.1V8.74H124.56V17.94V23H122.16V19.94H121.78C121.62 20.6867 121.386 21.3067 121.08 21.8C120.773 22.2933 120.386 22.6667 119.92 22.92C119.453 23.16 118.906 23.28 118.28 23.28ZM119.24 20.92C119.666 20.92 120.033 20.8267 120.34 20.64C120.646 20.4533 120.893 20.2133 121.08 19.92C121.28 19.6133 121.426 19.2867 121.52 18.94C121.626 18.5933 121.68 18.26 121.68 17.94V17.58C121.68 17.3133 121.64 17.04 121.56 16.76C121.493 16.48 121.393 16.2133 121.26 15.96C121.126 15.6933 120.96 15.46 120.76 15.26C120.56 15.0467 120.326 14.88 120.06 14.76C119.806 14.64 119.52 14.58 119.2 14.58C118.72 14.58 118.313 14.7133 117.98 14.98C117.646 15.2467 117.386 15.62 117.2 16.1C117.026 16.5667 116.94 17.12 116.94 17.76C116.94 18.3867 117.033 18.94 117.22 19.42C117.406 19.9 117.673 20.2733 118.02 20.54C118.366 20.7933 118.773 20.92 119.24 20.92ZM131.516 23.28C130.636 23.28 129.856 23.16 129.176 22.92C128.509 22.68 127.943 22.3333 127.476 21.88C127.009 21.4133 126.656 20.8533 126.416 20.2C126.176 19.5333 126.056 18.78 126.056 17.94C126.056 17.1133 126.169 16.3533 126.396 15.66C126.636 14.9533 126.976 14.3467 127.416 13.84C127.869 13.32 128.423 12.92 129.076 12.64C129.729 12.36 130.469 12.22 131.296 12.22C132.109 12.22 132.823 12.3533 133.436 12.62C134.063 12.8867 134.583 13.28 134.996 13.8C135.423 14.32 135.729 14.9533 135.916 15.7C136.116 16.4467 136.183 17.3067 136.116 18.28L127.916 18.34V16.76L134.416 16.7L133.456 17.52C133.536 16.8133 133.483 16.2333 133.296 15.78C133.123 15.3267 132.856 14.9933 132.496 14.78C132.149 14.5667 131.763 14.46 131.336 14.46C130.829 14.46 130.383 14.5933 129.996 14.86C129.623 15.1267 129.329 15.52 129.116 16.04C128.903 16.5467 128.796 17.16 128.796 17.88C128.796 19.0133 129.043 19.8467 129.536 20.38C130.029 20.9 130.683 21.16 131.496 21.16C131.869 21.16 132.183 21.1133 132.436 21.02C132.703 20.9133 132.916 20.78 133.076 20.62C133.249 20.46 133.383 20.28 133.476 20.08C133.583 19.88 133.663 19.6733 133.716 19.46L136.216 19.98C136.123 20.4733 135.956 20.92 135.716 21.32C135.489 21.72 135.183 22.0667 134.796 22.36C134.423 22.6533 133.963 22.88 133.416 23.04C132.869 23.2 132.236 23.28 131.516 23.28ZM141.996 23.28C141.289 23.28 140.649 23.2133 140.076 23.08C139.503 22.9467 139.009 22.7533 138.596 22.5C138.183 22.2333 137.849 21.92 137.596 21.56C137.343 21.1867 137.183 20.7733 137.116 20.32L139.316 19.48C139.383 19.7733 139.529 20.0533 139.756 20.32C139.996 20.5733 140.316 20.78 140.716 20.94C141.116 21.0867 141.603 21.16 142.176 21.16C142.776 21.16 143.243 21.0733 143.576 20.9C143.909 20.7133 144.076 20.4533 144.076 20.12C144.076 19.8667 143.983 19.6667 143.796 19.52C143.609 19.3733 143.336 19.2467 142.976 19.14C142.629 19.0333 142.203 18.9333 141.696 18.84C141.189 18.72 140.676 18.5933 140.156 18.46C139.649 18.3133 139.176 18.12 138.736 17.88C138.309 17.64 137.963 17.3267 137.696 16.94C137.429 16.5533 137.296 16.06 137.296 15.46C137.296 14.8067 137.469 14.24 137.816 13.76C138.163 13.28 138.669 12.9067 139.336 12.64C140.016 12.36 140.829 12.22 141.776 12.22C142.643 12.22 143.403 12.34 144.056 12.58C144.709 12.8067 145.243 13.14 145.656 13.58C146.083 14.02 146.356 14.5533 146.476 15.18L144.136 15.94C144.096 15.6067 143.969 15.32 143.756 15.08C143.556 14.8267 143.283 14.64 142.936 14.52C142.603 14.4 142.216 14.34 141.776 14.34C141.203 14.34 140.756 14.4333 140.436 14.62C140.129 14.8067 139.976 15.0533 139.976 15.36C139.976 15.6133 140.076 15.82 140.276 15.98C140.489 16.14 140.783 16.2733 141.156 16.38C141.529 16.4733 141.969 16.5733 142.476 16.68C142.996 16.7867 143.509 16.9133 144.016 17.06C144.523 17.1933 144.976 17.3733 145.376 17.6C145.789 17.8267 146.116 18.1267 146.356 18.5C146.609 18.8733 146.736 19.36 146.736 19.96C146.736 20.6533 146.549 21.2467 146.176 21.74C145.803 22.2333 145.263 22.6133 144.556 22.88C143.849 23.1467 142.996 23.28 141.996 23.28Z" fill="white"/>
</svg>
